# AST/ASF file generated using VICON BodyLanguage
# -----------------------------------------------
:version 1.10
:name VICON
:units
  mass 1.0
  length 0.45
  angle deg
:documentation
   .ast/.asf automatically generated from VICON data using
   VICON BodyBuilder and BodyLanguage model FoxedUp or BRILLIANT.MOD
:root
   order TX TY TZ RX RY RZ
   axis XYZ
   position 0 0 0  
   orientation 0 0 0 
:bonedata
  begin
     id 1 
     name lhipjoint
     direction 0.693937 -0.600361 0.397515 
     length 2.37164 
     axis 0 0 0  XYZ
  end
  begin
     id 2 
     name lfemur
     direction 0.34202 -0.939693 0  
     length 6.18497  
     axis 0 0 20  XYZ
    dof rx ry rz
    limits (-160.0 20.0)
           (-70.0 70.0)
           (-60.0 70.0)
  end
  begin
     id 3 
     name ltibia
     direction 0.34202 -0.939693 0   
     length 6.91601   
     axis 0 0 20   XYZ
    dof rx
    limits (-10.0 170.0)
  end
  begin
     id 4 
     name lfoot
     direction 0.0978718 -0.2689 0.958182   
     length 1.81453   
     axis -90 7.62852e-016 20   XYZ
    dof rx rz
    limits (-45.0 90.0)
           (-70.0 20.0)
  end
  begin
     id 5 
     name ltoes
     direction 1.53569e-011 -4.21951e-011 1   
     length 0.912052   
     axis -90 7.62852e-016 20   XYZ
    dof rx
    limits (-90.0 20.0)
  end
  begin
     id 6 
     name rhipjoint
     direction -0.643996 -0.637876 0.422354   
     length 2.23216  
     axis 0 0 0  XYZ 
  end
  begin
     id 7 
     name rfemur
     direction -0.34202 -0.939693 0   
     length 6.15404   
     axis 0 0 -20   XYZ
    dof rx ry rz
    limits (-160.0 20.0)
           (-70.0 70.0)
           (-70.0 60.0)
  end
  begin
     id 8 
     name rtibia
     direction -0.34202 -0.939693 0   
     length 6.86744   
     axis 0 0 -20   XYZ
    dof rx
    limits (-10.0 170.0)
 end
 begin
     id 9 
     name rfoot
     direction -0.118701 -0.326127 0.937844   
     length 1.9243  
     axis -90 -7.62852e-016 -20   XYZ
    dof rx rz
    limits (-45.0 90.0)
           (-20.0 70.0)
  end
  begin
     id 10 
     name rtoes
     direction -1.5356e-011 -4.2181e-011 1   
     length 0.958865   
     axis -90 -7.62852e-016 -20   XYZ
    dof rx
    limits (-90.0 20.0)
  end
  begin
     id 11 
     name lowerback
     direction 0.0310826 0.968686 -0.246334   
     length 2.00021   
     axis 0 0 0   XYZ
    dof rx ry rz
    limits (-20.0 45.0)
           (-30.0 30.0)
           (-30.0 30.0)
  end
  begin
     id 12 
     name upperback
     direction -0.0152834 0.999474 -0.0286152   
     length 2.03728   
     axis 0 0 0   XYZ
    dof rx ry rz
    limits (-20.0 45.0)
           (-30.0 30.0)
           (-30.0 30.0)
  end
  begin
     id 13 
     name thorax
     direction -0.0323701 0.996236 0.0804149   
     length 2.16   
     axis 0 0 0   XYZ
    dof rx ry rz
    limits (-20.0 45.0)
           (-30.0 30.0)
           (-30.0 30.0)
  end
  begin
     id 14 
     name lowerneck
     direction 0.0307935 0.982251 0.185027   
     length 1.43558   
     axis 0 0 0   XYZ
    dof rx ry rz
    limits (-20.0 45.0)
           (-30.0 30.0)
           (-30.0 30.0)
  end
  begin
     id 15 
     name upperneck
     direction -0.0927153 0.994775 0.0427454   
     length 1.44603   
     axis 0 0 0   XYZ
    dof rx ry rz
    limits (-20.0 45.0)
           (-30.0 30.0)
           (-30.0 30.0)
  end
  begin
     id 16
     name head
     direction -0.0341265 0.999406 -0.00472033  
     length 1.45931  
     axis 0 0 0   XYZ
    dof rx ry rz
    limits (-20.0 45.0)
           (-30.0 30.0)
           (-30.0 30.0)
  end
  begin
     id 17 
     name lclavicle
     direction 0.820755 0.555306 -0.134151  
     length 2.66075  
     axis 0 0 0   XYZ
    dof ry rz
    limits (-20.0 10.0)
           (0.0 20.0)
  end
  begin
     id 18 
     name lhumerus
     direction 1 -4.48971e-011 5.24853e-027   
     length 5.0546   
     axis -180 -30 -90   XYZ
    dof rx ry rz
    limits (-60.0 90.0)
           (-90.0 90.0)
           (-90.0 90.0)
  end
  begin
     id 19
     name lradius
     direction 1 -4.48971e-011 2.76575e-028   
     length 3.39013   
     axis -180 -30 -90   XYZ
    dof rx
    limits (-10.0 170.0)
  end
  begin
     id 20
     name lwrist
     direction 1 -4.48939e-011 -2.27826e-027   
     length 1.69507   
     axis 2.17013e-015 90 90   XYZ
    dof ry
    limits (-180.0 0.0)
 end
  begin
     id 21 
     name lhand
     direction 1 -4.49009e-011 -4.55652e-027   
     length 0.572425   
     axis 2.90745e-015 90 90   XYZ
    dof rx rz
    limits (-90.0 90.0)
           (-45.0 45.0)
  end
  begin
     id 22 
     name lfingers
     direction 1 -4.48955e-011 -9.11303e-027   
     length 0.461504   
     axis 5.81489e-015 90 90   XYZ
    dof rx
    limits (0.0 90.0)
  end
  begin
     id 23
     name lthumb
     direction 0.707107 -6.34929e-011 0.707107   
     length 0.66263   
     axis -90 45 2.85299e-015   XYZ
    dof rx rz
    limits (-45.0 45.0)
           (-45.0 45.0)
  end
  begin
     id 24 
     name rclavicle
     direction -0.754477 0.632921 -0.173712   
     length 2.73081  
     axis 0 0 0   XYZ 
    dof ry rz
    limits (-10.0 20.0)
           (-20.0 0.0)
  end
  begin
     id 25 
     name rhumerus
     direction -1 -4.48969e-011 5.1496e-027  
     length 5.0701   
     axis -180 30 90   XYZ
    dof rx ry rz
    limits (-90.0 60.0)
           (-90.0 90.0)
           (-90.0 90.0)
  end
  begin
     id 26 
     name rradius
     direction -1 -4.48967e-011 -7.15624e-028   
     length 3.14957   
     axis -180 30 90   XYZ
    dof rx
    limits (-10.0 170.0)
  end
  begin
     id 27 
     name rwrist
     direction -1 -4.48938e-011 -2.27826e-027   
     length 1.57479   
     axis 2.17013e-015 -90 -90   XYZ
    dof ry
    limits (-180.0 0.0)
  end
  begin
     id 28
     name rhand
     direction -1 -4.49008e-011 -4.55652e-027   
     length 0.718191   
     axis 2.90745e-015 -90 -90   XYZ
    dof rx rz
    limits (-90.0 90.0)
           (-45.0 45.0)
  end
  begin
     id 29
     name rfingers
     direction -1 -4.48953e-011 -9.11303e-027   
     length 0.579024   
     axis 5.81489e-015 -90 -90   XYZ
    dof rx
    limits (0.0 90.0)
  end
  begin
     id 30
     name rthumb
     direction -0.707107 -6.34937e-011 0.707107   
     length 0.831366   
     axis -90 -45 -2.85299e-015   XYZ
    dof rx rz
    limits (-45.0 45.0)
           (-45.0 45.0)
  end
:hierarchy
  begin
    root lhipjoint rhipjoint lowerback
    lhipjoint lfemur
    lfemur ltibia
    ltibia lfoot
    lfoot ltoes
    rhipjoint rfemur
    rfemur rtibia
    rtibia rfoot
    rfoot rtoes
    lowerback upperback
    upperback thorax
    thorax lowerneck lclavicle rclavicle
    lowerneck upperneck
    upperneck head
    lclavicle lhumerus
    lhumerus lradius
    lradius lwrist
    lwrist lhand lthumb
    lhand lfingers
    rclavicle rhumerus
    rhumerus rradius
    rradius rwrist
    rwrist rhand rthumb
    rhand rfingers
  end

#!OML:ASF H:\Male1\Project 1\Capture day 1\Session 1\Male1.ASF
:FULLY-SPECIFIED
:DEGREES
69
root 21.4999 15.1533 -0.446621 155.534 -86.0323 -158.255
lowerback 6.51379 1.53821 -0.170871
upperback 5.62393 1.86352 -1.36305
thorax 2.19205 0.872086 -1.39335
lowerneck -1.66688 2.76824 8.05816
upperneck -3.39383 3.4963 -4.1492
head -0.557058 1.66999 -2.71302
rclavicle 8.94531e-015 1.59028e-015
rhumerus -21.871 -5.97014 -91.8919
rradius 41.4143
rwrist -37.855
rhand -23.515 -6.99651
rfingers 7.12502
rthumb 2.94571 -36.9559
lclavicle 8.94531e-015 1.59028e-015
lhumerus -20.1636 -2.00488 82.2765
lradius 26.8435
lwrist -6.94837
lhand -17.0556 4.59294
lfingers 7.12502
lthumb 9.18168 34.3731
rfemur -9.01314 14.4323 22.8215
rtibia 32.7236
rfoot -35.0436 -32.0669
rtoes -13.9609
lfemur -10.0327 -14.598 -16.2015
ltibia 35.2519
lfoot -26.6651 24.5132
ltoes -5.98622
70
root 21.4998 15.1539 -0.444483 157.979 -86.0388 -160.676
lowerback 6.5123 1.5834 -0.330537
upperback 5.66248 1.91476 -1.43494
thorax 2.23139 0.892789 -1.37982
lowerneck -1.41138 2.77044 8.32481
upperneck -3.99159 3.4971 -4.59519
head -0.780103 1.66175 -2.92688
rclavicle -4.17448e-015 1.82882e-014
rhumerus -21.7973 -5.26872 -92.046
rradius 41.5657
rwrist -37.6852
rhand -23.4987 -6.88195
rfingers 7.12502
rthumb 2.96153 -36.8411
lclavicle -4.17448e-015 1.82882e-014
lhumerus -20.1603 -2.87642 82.5755
lradius 26.8136
lwrist -6.67166
lhand -18.2464 3.0909
lfingers 7.12502
lthumb 8.03251 32.9183
rfemur -9.06814 14.4322 22.6187
rtibia 32.744
rfoot -35.0107 -31.9933
rtoes -13.819
lfemur -10.0257 -14.542 -16.3865
ltibia 35.2244
lfoot -26.6409 24.6792
ltoes -6.41545
71
root 21.4977 15.155 -0.443556 156.342 -85.9422 -159.019
lowerback 6.43373 1.61249 -0.191568
upperback 5.73163 1.95894 -1.40966
thorax 2.35193 0.918424 -1.4304
lowerneck -0.942576 2.67748 8.10707
upperneck -4.63441 3.40014 -4.57886
head -1.07877 1.60934 -2.90021
rclavicle 1.32192e-014 -4.77083e-015
rhumerus -21.6597 -4.64234 -92.1869
rradius 41.7285
rwrist -37.6404
rhand -23.5078 -6.92069
rfingers 7.12502
rthumb 2.95272 -36.88
lclavicle 1.32192e-014 -4.77083e-015
lhumerus -20.197 -3.68705 82.8861
lradius 26.7424
lwrist -6.825
lhand -19.94 1.93508
lfingers 7.12502
lthumb 6.39775 31.8185
rfemur -9.05321 14.5997 22.7976
rtibia 32.7187
rfoot -35.1766 -31.9647
rtoes -12.7595
lfemur -10.0256 -14.5217 -16.2268
ltibia 35.2234
lfoot -26.6807 24.7136
ltoes -6.62551
72
root 21.4947 15.1566 -0.442034 153.545 -85.8243 -156.174
lowerback 6.38785 1.60104 -0.0033565
upperback 5.7628 1.9515 -1.31645
thorax 2.41281 0.919435 -1.43766
lowerneck -0.771344 2.72076 8.07201
upperneck -5.05751 3.45513 -4.77949
head -1.23883 1.63397 -2.97246
rclavicle 6.85807e-015 3.97569e-015
rhumerus -21.5164 -4.0006 -92.281
rradius 42.0097
rwrist -38.3073
rhand -23.3401 -7.1557
rfingers 7.12502
rthumb 3.1147 -37.1127
lclavicle 6.85807e-015 3.97569e-015
lhumerus -20.3083 -4.43559 83.2237
lradius 26.7089
lwrist -7.34118
lhand -19.0218 3.23275
lfingers 7.12502
lthumb 7.28409 33.0874
rfemur -9.04389 14.7484 23.0619
rtibia 32.6567
rfoot -35.2776 -31.9954
rtoes -11.5713
lfemur -10.066 -14.5148 -15.9639
ltibia 35.2452
lfoot -26.7299 24.6931
ltoes -6.72602
73
root 21.4904 15.1582 -0.440108 153.011 -85.8582 -155.582
lowerback 6.34906 1.5871 0.0126244
upperback 5.77972 1.93385 -1.30873
thorax 2.45177 0.911048 -1.43666
lowerneck -0.681549 2.70138 8.07598
upperneck -5.41601 3.4201 -4.95341
head -1.3705 1.61302 -3.04101
rclavicle -2.48481e-015 1.59028e-015
rhumerus -21.4362 -3.50552 -92.372
rradius 42.6344
rwrist -39.9556
rhand -23.1293 -8.05207
rfingers 7.12502
rthumb 3.31825 -38.006
lclavicle -2.48481e-015 1.59028e-015
lhumerus -20.4233 -5.34263 83.5237
lradius 26.8659
lwrist -7.26969
lhand -15.2296 5.60961
lfingers 7.12502
lthumb 10.9433 35.3044
rfemur -9.03645 14.788 23.076
rtibia 32.5974
rfoot -35.351 -32.012
rtoes -11.6004
lfemur -10.1343 -14.5122 -15.9332
ltibia 35.2578
lfoot -26.6211 24.6884
ltoes -7.05926
74
root 21.4877 15.1593 -0.439462 154.206 -85.9089 -156.725
lowerback 6.29959 1.62999 -0.0445639
upperback 5.79863 1.98908 -1.39
thorax 2.50147 0.938038 -1.48898
lowerneck -0.462667 2.64822 8.27799
upperneck -5.88219 3.34288 -5.26175
head -1.56001 1.56917 -3.19884
rclavicle -2.24627e-014 -5.56597e-015
rhumerus -21.3313 -3.2762 -92.4997
rradius 43.3366
rwrist -41.951
rhand -23.1731 -9.26692
rfingers 7.12502
rthumb 3.27598 -39.2215
lclavicle -2.24627e-014 -5.56597e-015
lhumerus -20.5029 -6.30253 83.7352
lradius 27.0319
lwrist -6.89056
lhand -19.1543 5.33515
lfingers 7.12502
lthumb 7.15618 35.1942
rfemur -9.05433 14.8901 22.9714
rtibia 32.5692
rfoot -35.4907 -32.0377
rtoes -12.4869
lfemur -10.1843 -14.5226 -16.0289
ltibia 35.2489
lfoot -26.6064 24.6338
ltoes -6.79888
